<svg xmlns="http://www.w3.org/2000/svg" viewBox="0 0 512 512">
  <defs>
    <linearGradient id="bg" x1="0%" y1="0%" x2="100%" y2="100%">
      <stop offset="0%" stop-color="#114831" />
      <stop offset="100%" stop-color="#2d8d63" />
    </linearGradient>
    <linearGradient id="accent" x1="0%" y1="0%" x2="100%" y2="100%">
      <stop offset="0%" stop-color="#fff4dd" />
      <stop offset="100%" stop-color="#efc56d" />
    </linearGradient>
  </defs>
  <rect width="512" height="512" rx="120" fill="url(#bg)" />
  <circle cx="256" cy="154" r="34" fill="url(#accent)" />
  <rect x="194" y="184" width="124" height="142" rx="38" fill="#f8fff9" />
  <rect x="160" y="224" width="192" height="144" rx="44" fill="#dff1e8" />
  <circle cx="214" cy="274" r="18" fill="#114831" />
  <circle cx="298" cy="274" r="18" fill="#114831" />
  <rect x="212" y="318" width="88" height="20" rx="10" fill="#114831" />
  <rect x="124" y="232" width="46" height="18" rx="9" fill="#efc56d" />
  <rect x="342" y="232" width="46" height="18" rx="9" fill="#efc56d" />
  <rect x="172" y="364" width="34" height="82" rx="17" fill="#f8fff9" />
  <rect x="306" y="364" width="34" height="82" rx="17" fill="#f8fff9" />
  <rect x="116" y="382" width="112" height="36" rx="18" fill="#fff4dd" opacity="0.92" />
  <rect x="284" y="382" width="112" height="36" rx="18" fill="#fff4dd" opacity="0.92" />
</svg>
